<svg width="695" height="706" viewBox="0 0 695 706" fill="none" xmlns="http://www.w3.org/2000/svg">
<path d="M562.171 485.907C562.171 485.907 562.523 443.748 563.81 307.422C563.077 132.951 477.974 274.494 346.17 275.023C214.366 275.552 128.306 140.921 130.731 313.731C133.155 486.541 130.809 421.523 130.859 490.591M452.603 514.019C506.002 565.607 491.74 552.015 508.038 568.323M346.69 532.435C347.68 574.995 347.051 550.746 347.668 575.071M414.58 593.268L414.406 609.388L414.233 625.507M319.002 382.274L319.254 447.714L375.069 447.389L373.97 381.807L319.002 382.274Z" stroke="url(#paint0_linear_63_28)" stroke-width="70"/>
<path d="M453.978 518.234L406.657 479.127" stroke="#C1B3FF" stroke-width="8"/>
<defs>
<linearGradient id="paint0_linear_63_28" x1="341.122" y1="204.92" x2="341.122" y2="613.137" gradientUnits="userSpaceOnUse">
<stop stop-color="#42A0FF"/>
<stop offset="0.2775" stop-color="#7E4AFF"/>
<stop offset="0.59" stop-color="#C1B3FF"/>
</linearGradient>
</defs>
</svg>
