<svg width="2318" height="706" viewBox="0 0 2318 706" fill="none" xmlns="http://www.w3.org/2000/svg">
<path d="M693.723 493.216C693.723 493.216 694.076 451.056 695.363 314.73C694.63 140.26 609.527 281.802 477.723 282.331C345.919 282.86 259.859 148.23 262.283 321.04C264.708 493.849 262.362 428.832 262.412 497.9M584.156 521.328C637.554 572.916 623.293 559.323 639.591 575.631M478.243 539.744C479.233 582.303 478.603 558.055 479.22 582.379M546.132 600.577L545.959 616.696L545.786 632.816M450.555 389.582L450.807 455.022L506.622 454.698L505.523 389.116L450.555 389.582Z" stroke="url(#paint0_linear_64_47)" stroke-width="70"/>
<path d="M585.531 525.543L538.21 486.436" stroke="#C1B3FF" stroke-width="8"/>
<path d="M1077.18 285.158C1092.11 285.158 1105.29 288.191 1116.73 294.258C1128.39 300.091 1137.49 309.191 1144.03 321.558C1150.79 333.691 1154.18 349.324 1154.18 368.458V476.258H1099.58V376.858C1099.58 361.691 1096.43 350.491 1090.13 343.258C1083.83 336.024 1074.96 332.408 1063.53 332.408C1055.59 332.408 1048.48 334.274 1042.18 338.008C1035.88 341.508 1030.98 346.874 1027.48 354.108C1023.98 361.341 1022.23 370.558 1022.23 381.758V476.258H967.625V376.858C967.625 361.691 964.475 350.491 958.175 343.258C952.109 336.024 943.359 332.408 931.925 332.408C923.992 332.408 916.875 334.274 910.575 338.008C904.275 341.508 899.375 346.874 895.875 354.108C892.375 361.341 890.625 370.558 890.625 381.758V476.258H836.025V287.958H888.175V339.408L878.375 324.358C884.909 311.524 894.125 301.841 906.025 295.308C918.159 288.541 931.925 285.158 947.325 285.158C964.592 285.158 979.642 289.591 992.475 298.458C1005.54 307.091 1014.18 320.391 1018.38 338.358L999.125 333.108C1005.43 318.408 1015.46 306.741 1029.23 298.108C1043.23 289.474 1059.21 285.158 1077.18 285.158ZM1203.12 476.258V287.958H1257.72V476.258H1203.12ZM1230.42 261.708C1220.38 261.708 1212.22 258.791 1205.92 252.958C1199.62 247.124 1196.47 239.891 1196.47 231.258C1196.47 222.624 1199.62 215.391 1205.92 209.558C1212.22 203.724 1220.38 200.808 1230.42 200.808C1240.45 200.808 1248.62 203.608 1254.92 209.208C1261.22 214.574 1264.37 221.574 1264.37 230.208C1264.37 239.308 1261.22 246.891 1254.92 252.958C1248.85 258.791 1240.68 261.708 1230.42 261.708ZM1308.39 476.258V216.558H1362.99V476.258H1308.39ZM1413.66 476.258V287.958H1468.26V476.258H1413.66ZM1440.96 261.708C1430.93 261.708 1422.76 258.791 1416.46 252.958C1410.16 247.124 1407.01 239.891 1407.01 231.258C1407.01 222.624 1410.16 215.391 1416.46 209.558C1422.76 203.724 1430.93 200.808 1440.96 200.808C1451 200.808 1459.16 203.608 1465.46 209.208C1471.76 214.574 1474.91 221.574 1474.91 230.208C1474.91 239.308 1471.76 246.891 1465.46 252.958C1459.4 258.791 1451.23 261.708 1440.96 261.708ZM1608.54 479.058C1588.47 479.058 1570.62 474.858 1554.99 466.458C1539.59 458.058 1527.34 446.624 1518.24 432.158C1509.37 417.458 1504.94 400.774 1504.94 382.108C1504.94 363.208 1509.37 346.524 1518.24 332.058C1527.34 317.358 1539.59 305.924 1554.99 297.758C1570.62 289.358 1588.47 285.158 1608.54 285.158C1628.37 285.158 1646.1 289.358 1661.74 297.758C1677.37 305.924 1689.62 317.241 1698.49 331.708C1707.35 346.174 1711.79 362.974 1711.79 382.108C1711.79 400.774 1707.35 417.458 1698.49 432.158C1689.62 446.624 1677.37 458.058 1661.74 466.458C1646.1 474.858 1628.37 479.058 1608.54 479.058ZM1608.54 434.258C1617.64 434.258 1625.8 432.158 1633.04 427.958C1640.27 423.758 1645.99 417.808 1650.19 410.108C1654.39 402.174 1656.49 392.841 1656.49 382.108C1656.49 371.141 1654.39 361.808 1650.19 354.108C1645.99 346.408 1640.27 340.458 1633.04 336.258C1625.8 332.058 1617.64 329.958 1608.54 329.958C1599.44 329.958 1591.27 332.058 1584.04 336.258C1576.8 340.458 1570.97 346.408 1566.54 354.108C1562.34 361.808 1560.24 371.141 1560.24 382.108C1560.24 392.841 1562.34 402.174 1566.54 410.108C1570.97 417.808 1576.8 423.758 1584.04 427.958C1591.27 432.158 1599.44 434.258 1608.54 434.258ZM1766.88 479.058C1757.55 479.058 1749.5 475.908 1742.73 469.608C1736.2 463.074 1732.93 454.791 1732.93 444.758C1732.93 434.724 1736.2 426.674 1742.73 420.608C1749.5 414.308 1757.55 411.158 1766.88 411.158C1776.45 411.158 1784.5 414.308 1791.03 420.608C1797.56 426.674 1800.83 434.724 1800.83 444.758C1800.83 454.791 1797.56 463.074 1791.03 469.608C1784.5 475.908 1776.45 479.058 1766.88 479.058ZM1956.75 476.258V439.508L1953.25 431.458V365.658C1953.25 353.991 1949.63 344.891 1942.4 338.358C1935.4 331.824 1924.55 328.558 1909.85 328.558C1899.82 328.558 1889.9 330.191 1880.1 333.458C1870.53 336.491 1862.37 340.691 1855.6 346.058L1836 307.908C1846.27 300.674 1858.63 295.074 1873.1 291.108C1887.57 287.141 1902.27 285.158 1917.2 285.158C1945.9 285.158 1968.18 291.924 1984.05 305.458C1999.92 318.991 2007.85 340.108 2007.85 368.808V476.258H1956.75ZM1899.35 479.058C1884.65 479.058 1872.05 476.608 1861.55 471.708C1851.05 466.574 1843 459.691 1837.4 451.058C1831.8 442.424 1829 432.741 1829 422.008C1829 410.808 1831.68 401.008 1837.05 392.608C1842.65 384.208 1851.4 377.674 1863.3 373.008C1875.2 368.108 1890.72 365.658 1909.85 365.658H1959.9V397.508H1915.8C1902.97 397.508 1894.1 399.608 1889.2 403.808C1884.53 408.008 1882.2 413.258 1882.2 419.558C1882.2 426.558 1884.88 432.158 1890.25 436.358C1895.85 440.324 1903.43 442.308 1913 442.308C1922.1 442.308 1930.27 440.208 1937.5 436.008C1944.73 431.574 1949.98 425.158 1953.25 416.758L1961.65 441.958C1957.68 454.091 1950.45 463.308 1939.95 469.608C1929.45 475.908 1915.92 479.058 1899.35 479.058ZM2057.27 476.258V287.958H2111.87V476.258H2057.27ZM2084.57 261.708C2074.53 261.708 2066.37 258.791 2060.07 252.958C2053.77 247.124 2050.62 239.891 2050.62 231.258C2050.62 222.624 2053.77 215.391 2060.07 209.558C2066.37 203.724 2074.53 200.808 2084.57 200.808C2094.6 200.808 2102.77 203.608 2109.07 209.208C2115.37 214.574 2118.52 221.574 2118.52 230.208C2118.52 239.308 2115.37 246.891 2109.07 252.958C2103 258.791 2094.83 261.708 2084.57 261.708Z" fill="white"/>
<defs>
<linearGradient id="paint0_linear_64_47" x1="472.675" y1="212.229" x2="472.675" y2="620.445" gradientUnits="userSpaceOnUse">
<stop stop-color="#42A0FF"/>
<stop offset="0.2775" stop-color="#7E4AFF"/>
<stop offset="0.59" stop-color="#C1B3FF"/>
</linearGradient>
</defs>
</svg>
